<mxfile host="app.diagrams.net" modified="2024-02-12T15:15:13.998Z" agent="Mozilla/5.0 (Windows NT 10.0; Win64; x64) AppleWebKit/537.36 (KHTML, like Gecko) Chrome/121.0.0.0 Safari/537.36" etag="iI76r5LgU-Oo2jDN-PqR" version="23.1.1" type="device">
  <diagram name="Página-1" id="K7xeUxQgFNP1OgTK7y_L">
    <mxGraphModel dx="880" dy="460" grid="1" gridSize="10" guides="1" tooltips="1" connect="1" arrows="1" fold="1" page="1" pageScale="1" pageWidth="827" pageHeight="1169" math="0" shadow="0">
      <root>
        <mxCell id="0" />
        <mxCell id="1" parent="0" />
        <mxCell id="omx1o3ymmlKx_Dbwg88i-5" value="" style="edgeStyle=orthogonalEdgeStyle;rounded=0;orthogonalLoop=1;jettySize=auto;html=1;" edge="1" parent="1" source="omx1o3ymmlKx_Dbwg88i-1" target="omx1o3ymmlKx_Dbwg88i-4">
          <mxGeometry relative="1" as="geometry" />
        </mxCell>
        <mxCell id="omx1o3ymmlKx_Dbwg88i-8" value="" style="edgeStyle=orthogonalEdgeStyle;rounded=0;orthogonalLoop=1;jettySize=auto;html=1;" edge="1" parent="1" source="omx1o3ymmlKx_Dbwg88i-1" target="omx1o3ymmlKx_Dbwg88i-4">
          <mxGeometry relative="1" as="geometry" />
        </mxCell>
        <mxCell id="omx1o3ymmlKx_Dbwg88i-1" value="Inicio" style="ellipse;whiteSpace=wrap;html=1;" vertex="1" parent="1">
          <mxGeometry x="340" y="30" width="120" height="80" as="geometry" />
        </mxCell>
        <mxCell id="omx1o3ymmlKx_Dbwg88i-2" value="Final" style="ellipse;whiteSpace=wrap;html=1;" vertex="1" parent="1">
          <mxGeometry x="340" y="610" width="120" height="80" as="geometry" />
        </mxCell>
        <mxCell id="omx1o3ymmlKx_Dbwg88i-3" value="Leer X" style="shape=parallelogram;perimeter=parallelogramPerimeter;whiteSpace=wrap;html=1;fixedSize=1;" vertex="1" parent="1">
          <mxGeometry x="340" y="130" width="120" height="60" as="geometry" />
        </mxCell>
        <mxCell id="omx1o3ymmlKx_Dbwg88i-7" value="" style="edgeStyle=orthogonalEdgeStyle;rounded=0;orthogonalLoop=1;jettySize=auto;html=1;" edge="1" parent="1" source="omx1o3ymmlKx_Dbwg88i-4" target="omx1o3ymmlKx_Dbwg88i-6">
          <mxGeometry relative="1" as="geometry" />
        </mxCell>
        <mxCell id="omx1o3ymmlKx_Dbwg88i-4" value="i = 1" style="rounded=0;whiteSpace=wrap;html=1;" vertex="1" parent="1">
          <mxGeometry x="340" y="220" width="120" height="60" as="geometry" />
        </mxCell>
        <mxCell id="omx1o3ymmlKx_Dbwg88i-16" value="" style="edgeStyle=orthogonalEdgeStyle;rounded=0;orthogonalLoop=1;jettySize=auto;html=1;" edge="1" parent="1" source="omx1o3ymmlKx_Dbwg88i-6" target="omx1o3ymmlKx_Dbwg88i-9">
          <mxGeometry relative="1" as="geometry" />
        </mxCell>
        <mxCell id="omx1o3ymmlKx_Dbwg88i-6" value="i + i = 1&lt;br&gt;Dividir X dentro de i" style="rounded=0;whiteSpace=wrap;html=1;" vertex="1" parent="1">
          <mxGeometry x="340" y="300" width="120" height="60" as="geometry" />
        </mxCell>
        <mxCell id="omx1o3ymmlKx_Dbwg88i-14" value="" style="edgeStyle=orthogonalEdgeStyle;rounded=0;orthogonalLoop=1;jettySize=auto;html=1;" edge="1" parent="1" source="omx1o3ymmlKx_Dbwg88i-9" target="omx1o3ymmlKx_Dbwg88i-13">
          <mxGeometry relative="1" as="geometry" />
        </mxCell>
        <mxCell id="omx1o3ymmlKx_Dbwg88i-17" value="" style="edgeStyle=orthogonalEdgeStyle;rounded=0;orthogonalLoop=1;jettySize=auto;html=1;" edge="1" parent="1" source="omx1o3ymmlKx_Dbwg88i-9" target="omx1o3ymmlKx_Dbwg88i-15">
          <mxGeometry relative="1" as="geometry" />
        </mxCell>
        <mxCell id="omx1o3ymmlKx_Dbwg88i-9" value="¿i &amp;lt; X?" style="rhombus;whiteSpace=wrap;html=1;" vertex="1" parent="1">
          <mxGeometry x="315" y="380" width="170" height="80" as="geometry" />
        </mxCell>
        <mxCell id="omx1o3ymmlKx_Dbwg88i-10" value="si&amp;nbsp;" style="text;html=1;align=center;verticalAlign=middle;resizable=0;points=[];autosize=1;strokeColor=none;fillColor=none;" vertex="1" parent="1">
          <mxGeometry x="500" y="378" width="40" height="30" as="geometry" />
        </mxCell>
        <mxCell id="omx1o3ymmlKx_Dbwg88i-11" value="no" style="text;html=1;align=center;verticalAlign=middle;resizable=0;points=[];autosize=1;strokeColor=none;fillColor=none;" vertex="1" parent="1">
          <mxGeometry x="440" y="448" width="40" height="30" as="geometry" />
        </mxCell>
        <mxCell id="omx1o3ymmlKx_Dbwg88i-21" value="" style="edgeStyle=orthogonalEdgeStyle;rounded=0;orthogonalLoop=1;jettySize=auto;html=1;" edge="1" parent="1" source="omx1o3ymmlKx_Dbwg88i-13" target="omx1o3ymmlKx_Dbwg88i-20">
          <mxGeometry relative="1" as="geometry" />
        </mxCell>
        <mxCell id="omx1o3ymmlKx_Dbwg88i-13" value="¿Residuo == 0?" style="rhombus;whiteSpace=wrap;html=1;" vertex="1" parent="1">
          <mxGeometry x="550" y="380" width="150" height="80" as="geometry" />
        </mxCell>
        <mxCell id="omx1o3ymmlKx_Dbwg88i-23" value="" style="edgeStyle=orthogonalEdgeStyle;rounded=0;orthogonalLoop=1;jettySize=auto;html=1;" edge="1" parent="1" source="omx1o3ymmlKx_Dbwg88i-15" target="omx1o3ymmlKx_Dbwg88i-2">
          <mxGeometry relative="1" as="geometry" />
        </mxCell>
        <mxCell id="omx1o3ymmlKx_Dbwg88i-15" value="Primo" style="shape=parallelogram;perimeter=parallelogramPerimeter;whiteSpace=wrap;html=1;fixedSize=1;" vertex="1" parent="1">
          <mxGeometry x="340" y="510" width="120" height="60" as="geometry" />
        </mxCell>
        <mxCell id="omx1o3ymmlKx_Dbwg88i-18" value="si" style="text;html=1;align=center;verticalAlign=middle;resizable=0;points=[];autosize=1;strokeColor=none;fillColor=none;" vertex="1" parent="1">
          <mxGeometry x="680" y="370" width="30" height="30" as="geometry" />
        </mxCell>
        <mxCell id="omx1o3ymmlKx_Dbwg88i-22" style="edgeStyle=orthogonalEdgeStyle;rounded=0;orthogonalLoop=1;jettySize=auto;html=1;" edge="1" parent="1" source="omx1o3ymmlKx_Dbwg88i-20" target="omx1o3ymmlKx_Dbwg88i-2">
          <mxGeometry relative="1" as="geometry">
            <Array as="points">
              <mxPoint x="790" y="650" />
            </Array>
          </mxGeometry>
        </mxCell>
        <mxCell id="omx1o3ymmlKx_Dbwg88i-20" value="no es primo" style="shape=parallelogram;perimeter=parallelogramPerimeter;whiteSpace=wrap;html=1;fixedSize=1;" vertex="1" parent="1">
          <mxGeometry x="730" y="390" width="120" height="60" as="geometry" />
        </mxCell>
      </root>
    </mxGraphModel>
  </diagram>
</mxfile>
